<svg width="19" height="17" viewBox="0 0 19 17" fill="none" xmlns="http://www.w3.org/2000/svg">
<g id="emojione:warning" clip-path="url(#clip0_369_216)">
<path id="Vector" d="M1.75159 16.4687C0.7719 16.4687 0.326588 15.8312 0.7719 15.0609L8.69846 1.11558C9.14377 0.345264 9.85628 0.345264 10.3016 1.11558L18.2282 15.0609C18.6735 15.8312 18.2281 16.4687 17.2485 16.4687H1.75159Z" fill="#C3DDBC"/>
<g id="Group">
<path id="Vector_2" d="M8.2531 6.26873L9.08435 11.1828C9.17341 11.6609 9.85622 11.6609 9.94528 11.1828L10.7468 6.26873C10.8953 4.35623 8.10466 4.35623 8.2531 6.26873Z" fill="#444796"/>
<path id="Vector_3" d="M9.49999 14.2906C10.1886 14.2906 10.7469 13.7911 10.7469 13.175C10.7469 12.5588 10.1886 12.0593 9.49999 12.0593C8.81136 12.0593 8.25311 12.5588 8.25311 13.175C8.25311 13.7911 8.81136 14.2906 9.49999 14.2906Z" fill="#444796"/>
</g>
</g>
<defs>
<clipPath id="clip0_369_216">
<rect width="19" height="17" fill="white"/>
</clipPath>
</defs>
</svg>
