<?xml version="1.0" encoding="UTF-8"?>
<svg id="Capa_1" data-name="Capa 1" xmlns="http://www.w3.org/2000/svg" xmlns:xlink="http://www.w3.org/1999/xlink" viewBox="0 0 462.53 427.02">
  <defs>
    <linearGradient id="Degradado_sin_nombre_5" data-name="Degradado sin nombre 5" x1="231.35" y1=".15" x2="230.36" y2="427.02" gradientUnits="userSpaceOnUse">
      <stop offset=".1" stop-color="#b899c8"/>
      <stop offset=".16" stop-color="#b49fcb"/>
      <stop offset=".5" stop-color="#a1bbdb"/>
      <stop offset=".79" stop-color="#96cce5"/>
      <stop offset="1" stop-color="#93d3e9"/>
    </linearGradient>
  </defs>
  <path d="m462.52,19.31l-3.31,176.46-9.58,149.73-.17,2.7-1.58,24.73c-.99,7.97.99,12.12-11.86,14.28-23.21,4.57-60.13,9.62-98.82,13.13,0-1.22-.03-2.34-.19-2.68-.02-.05-.05-.1-.08-.15.12.43.17.87.17,1.31,0,.52-.08,1.04-.24,1.55.11-.01.23-.02.34-.03-.01,1.59-.1,3.35-.1,3.79,0,12.64-47.38,22.89-105.83,22.89s-105.84-10.25-105.84-22.89c0-.41-.08-2.41-.08-4.09.08,0,.15.01.23.02-.1-.41-.15-.82-.15-1.24,0-.5.07-.99.21-1.47-.05.1-.1.21-.14.31-.11.27-.15,1.25-.15,2.38-56.29-5.38-94.3-13.73-98.34-14.66-12.94-2.99-13.03-1-13.44-18.24l-1.1-18.99-.13-2.25c-.01-.14-.03-.29-.04-.43C8,300.56,4.15,203.35,1.85,178.08-.98,68.06.13,28.88.72,15.61.48,7.81,3.96,1.47,13.92,3.01c0,0,40.26-2.37,97.62-2.83,99.46-.79,250.96.91,337.66,7.13,9.1.67,13.61,5.49,13.32,12Z" fill="url(#Degradado_sin_nombre_5)" stroke-width="0"/>
</svg>