<?xml version="1.0" encoding="UTF-8"?>
<svg id="Capa_1" data-name="Capa 1" xmlns="http://www.w3.org/2000/svg" viewBox="0 0 499.62 308.19">
  <path d="m461.2,127.83v8.14h-6.41v35.29h-36.12v-106.41h-6.41v-14.67h-1.42v-3.78h-8.68c-2.27,0-4.15,1.62-4.54,3.78h-14.57v-23.96h-2.4V0h-3.29v26.22h-2.4v22.48h-4.71v-2.44h-6.54v18.59h-6.42v13.59h-49.51v-19.85l-43.13-26.58v73.83h-34.16v9.02h-3.46v5.34c0,1.56.52,3,1.4,4.16-5.21,4.12-16.04,11.89-32.1,18.44-9.01,3.68-17.15,5.95-23.77,7.36v-1.35c0-.57-.46-1.04-1.05-1.04h-2.51v-2.45h-21.27c.03-8.33.04-16.62.03-24.89,0-3.37-1.64-6.19-4.07-7.11-1.1-.41-2.2-.37-3.07-.19v-7.29h-9.65c-5.62,0-10.28,4.13-11.08,9.54h-14.58v-48.63h-5.04v-9.72h1.41v-3.07h-6.65v3.07h1.4v9.72h-11.03v-3.76h-21.72v9.34h-3.74v3.06h3.74v2.27h-3.74v3.07h3.74v2.27h-3.74v3.05h3.74v15.72h-24.48v-3.05h-5.62v29.11h-7.61v-10.56h1.1v-2.61h-1.11c-.07-3.93-3.28-7.09-7.22-7.09s-7.16,3.16-7.23,7.09h-1.53v2.61h1.52v10.56H0v180.36h499.62V127.83h-38.42ZM16.73,169.07h-4.49v-12.48h4.49v12.48Zm0-14.85h-4.49v-12.49h4.49v12.49Zm0-14.64h-4.49v-2.87h4.49v2.87Zm6.33,29.49h-4.5v-12.48h4.5v12.48Zm0-14.85h-4.5v-12.49h4.5v12.49Zm0-14.64h-4.5v-2.87h4.5v2.87Zm45.59,36.05h-2.14v-110.08h2.14v110.08Zm4.27,0h-2.05v-110.08h2.05v110.08Zm18.92-87.72h-6.17v-3.28h6.17v3.28Zm0-4.5h-6.17v-3.26h6.17v3.26Zm0-4.49h-6.17v-3.27h6.17v3.27Zm0-4.49h-6.17v-3.27h6.17v3.27Zm8.34,79.77h-3.1v-8.58h3.1v8.58Zm0-10.21h-3.1v-8.59h3.1v8.59Zm0-10.22h-3.1v-8.58h3.1v8.58Zm0-10.21h-3.1v-8.59h3.1v8.59Zm0-10.21h-3.1v-8.6h3.1v8.6Zm0-10.23h-3.1v-8.58h3.1v8.58Zm0-15.21h-6.18v-3.28h6.18v3.28Zm0-4.5h-6.18v-3.26h6.18v3.26Zm0-4.49h-6.18v-3.27h6.18v3.27Zm0-4.49h-6.18v-3.27h6.18v3.27Zm11.91,58.28h-1.19v-12.12h1.19v12.12Zm20.22,2.37h-19.15v-1.19h19.15v1.19Zm0-2.37h-19.15v-12.12h19.15v12.12Zm9.66,12.61h-1.35v-13.38c.77.82,1.28,1.91,1.43,3.12-.02,3.42-.05,6.84-.08,10.26Zm4.39-.07v.07h-3.1c.01-3.26.01-6.52.01-9.77-.02-2.32-1.02-4.34-2.65-5.48v-15.44c.63-.11,1.52-.15,2.46.18,1.9.7,3.21,2.67,3.46,5.06-.05,8.46-.12,16.91-.18,25.38Zm84.13-1.63h-4.62v14.02h4.62v13.62h-61.49v-13.01h2.51c.59,0,1.05-.46,1.05-1.04v-4.28c7.13-.81,17.52-2.66,29.52-7.02,13.64-4.96,23.25-10.93,28.41-14.52v12.23Zm0-13.44c-4.9,3.5-15.14,10.15-30.12,15.4-11.29,3.97-21.02,5.65-27.81,6.39v-.78c7.07-1.52,15.89-4.02,25.65-8.13,15.23-6.41,25.66-13.76,30.94-17.87.4.39.86.73,1.34,1.01v3.98Zm11.27,11.45h-6.18v-6.2h6.18v6.2Zm0-8.5h-6.18v-6.19h6.18v6.19Zm0-8.49h-6.18v-6.19h6.18v6.19Zm0-8.48h-6.18v-6.19h6.18v6.19Zm8.33,25.47h-6.18v-6.2h6.18v6.2Zm0-8.5h-6.18v-6.19h6.18v6.19Zm0-8.49h-6.18v-6.19h6.18v6.19Zm0-8.48h-6.18v-6.19h6.18v6.19Zm23.53,46.63h-3.09v-8.59h3.09v8.59Zm0-10.22h-3.09v-8.58h3.09v8.58Zm0-10.21h-3.09v-8.59h3.09v8.59Zm0-10.22h-3.09v-8.58h3.09v8.58Zm0-10.6h-3.09v-8.59h3.09v8.59Zm0-10.21h-3.09v-8.59h3.09v8.59Zm0-10.21h-3.09v-8.59h3.09v8.59Zm0-10.22h-3.09v-8.59h3.09v8.59Zm0-10.23h-3.09v-8.57h3.09v8.57Zm0-10.21h-3.09v-8.58h3.09v8.58Zm5.49,92.33h-3.1v-8.59h3.1v8.59Zm0-10.22h-3.1v-8.58h3.1v8.58Zm0-10.21h-3.1v-8.59h3.1v8.59Zm0-10.22h-3.1v-8.58h3.1v8.58Zm0-10.6h-3.1v-8.59h3.1v8.59Zm0-10.21h-3.1v-8.59h3.1v8.59Zm0-10.21h-3.1v-8.59h3.1v8.59Zm0-10.22h-3.1v-8.59h3.1v8.59Zm0-10.23h-3.1v-8.57h3.1v8.57Zm78.18,90.59h-13.05v-5.99c0-2.32-1.87-4.18-4.17-4.18h-5.14c-2.3,0-4.18,1.86-4.18,4.18v5.99h-15.17v-82.89h41.71v82.89Zm13.66-28.4h-6.18v-14.61h6.18v14.61Zm0-16.16h-6.18v-2.62h6.18v2.62Zm0-9.6h-6.18v-14.53h6.18v14.53Zm0-16.08h-6.18v-2.7h6.18v2.7Zm0-9.67h-6.18v-14.46h6.18v14.46Zm0-16h-6.18v-2.79h6.18v2.79Zm36.76-2.79h6.18v2.79h-6.18v-2.79Zm0,4.33h6.18v14.46h-6.18v-14.46Zm0,21.43h6.18v2.7h-6.18v-2.7Zm0,4.25h6.18v14.53h-6.18v-14.53Zm0,21.51h6.18v2.62h-6.18v-2.62Zm0,4.17h6.18v14.61h-6.18v-14.61Zm0,21.6h6.18v2.53h-6.18v-2.53Zm-3.31,18.78h-6.18v-14.7h6.18v14.7Zm0-16.25h-6.18v-2.53h6.18v2.53Zm0-9.52h-6.18v-14.61h6.18v14.61Zm0-16.16h-6.18v-2.62h6.18v2.62Zm0-9.6h-6.18v-14.53h6.18v14.53Zm0-16.08h-6.18v-2.7h6.18v2.7Zm0-9.67h-6.18v-14.46h6.18v14.46Zm0-16h-6.18v-2.79h6.18v2.79Zm9.49,93.28h-6.18v-14.7h6.18v14.7Z" fill="#b899c8" stroke-width="0"/>
</svg>