<?xml version="1.0" encoding="UTF-8"?>
<svg id="Capa_1" data-name="Capa 1" xmlns="http://www.w3.org/2000/svg" viewBox="0 0 499.62 308.19">
  <path d="m477.87,168.54v7.94h-3.15v5.37h-1.45v2.08h1.45v2.03h-1.45v2.07h1.45v32.25h-16.34v3.72h-21.48v-57.43h-3.03v-5.06h-14.97v5.06h-8.5v-8.09h-2.92v-8.13h2.68v-20.92h-36.27v20.92h2.23v8.13h-2.23v-4.63h-11.1v4.63h-3.14v78.62h-5.43v-62.32h-5.55v-30.86h3.59v-4.71h-3.86v-2.36h-11.1v2.36h-21.73v-4.18h-4.95v4.18h-1.27v-4.18h-4.95v4.18h-6.43v4.71h3.44v54.42h-15.79v-4.32h-.48v-3.27h-2.09v3.27h-.68v-3.27h-1.88v3.27h-7.73v4.32h-1.95v33.67h-4.08v10.47h-43.33v-10.47h-4.08v-55.53h-3.14v-7.94h-21.64v-18.19h-6.27v-4.51h-4.08v4.51h-10.17v-4.51h-4.09v4.51h-39.09v-4.51h-4.08v4.51h-4.11v39.99h-26.75v8h-3.86v25.66h-50.81v-3.72h-16.35v-32.25h1.46v19.62h8.66v-27.27h-8.66v1.47h-1.46v-5.37h-3.14v-7.94H.11v139.08h41.13v-61.24h5.88v-4.3h9.62v3.99h5.59v61.55h7.96v-61.55h5.6v-3.99h10.57v4.3h5.59v61.24h127.28v-50.59h19.01v4.32h3.23v46.27h7.01v-46.27h3.23v-4.32h19.01v50.59h166.09v-61.24h4.85v-4.3h11.32v3.99h4.85v61.55h41.59v-139.08h-21.64Zm-450.17,13.67h5.91v23.66h-5.91v-23.66Zm-2.82,1.72h1.46v2.03h-1.46v-2.03Zm-21.64-7.45H.73v-6.82h2.52v6.82Zm4.33,32.51h-3.13v-3.73h3.13v3.73Zm0-4.78h-3.13v-1.3h3.13v1.3Zm0-6.22h-3.13v-3.73h3.13v3.73Zm0-4.78h-3.13v-1.3h3.13v1.3Zm0-6.22h-3.13v-3.73h3.13v3.73Zm0-4.78h-3.13v-1.3h3.13v1.3Zm0-5.73h-3.13v-6.82h3.13v6.82Zm4.33,32.51h-3.13v-3.73h3.13v3.73Zm0-4.78h-3.13v-1.3h3.13v1.3Zm0-6.22h-3.13v-3.73h3.13v3.73Zm0-4.78h-3.13v-1.3h3.13v1.3Zm0-6.22h-3.13v-3.73h3.13v3.73Zm0-4.78h-3.13v-1.3h3.13v1.3Zm0-5.73h-3.13v-6.82h3.13v6.82Zm4.33,0h-3.12v-6.82h3.12v6.82Zm4.34,32.51h-3.13v-3.73h3.13v3.73Zm0-4.78h-3.13v-1.3h3.13v1.3Zm0-6.22h-3.13v-3.73h3.13v3.73Zm0-4.78h-3.13v-1.3h3.13v1.3Zm0-6.22h-3.13v-3.73h3.13v3.73Zm0-4.78h-3.13v-1.3h3.13v1.3Zm0-5.73h-3.13v-6.82h3.13v6.82Zm26.57,50.39h-5.91v-1.74h5.91v1.74Zm5.31,0h-4.14v-1.74h4.14v1.74Zm5.3,0h-4.13v-1.74h4.13v1.74Zm5.31,0h-4.14v-1.74h4.14v1.74Zm5.31,0h-4.14v-1.74h4.14v1.74Zm5.31,0h-4.14v-1.74h4.14v1.74Zm5.3,0h-4.12v-1.74h4.12v1.74Zm5.31,0h-4.13v-1.74h4.13v1.74Zm7.75,0h-6.57v-1.74h6.57v1.74Zm5.03-35.4h3.28v6.87h-3.28v-6.87Zm1.01,37.06h-2.67v-5.79h2.67v5.79Zm0-10.01h-2.67v-5.78h2.67v5.78Zm0-10h-2.67v-5.79h2.67v5.79Zm3.85,20.01h-2.67v-5.79h2.67v5.79Zm0-10.01h-2.67v-5.78h2.67v5.78Zm0-10h-2.67v-5.79h2.67v5.79Zm2.86-10.18h-3.27v-6.87h3.27v6.87Zm1.18-6.87h3.27v6.87h-3.27v-6.87Zm3.87,37.06h-2.68v-5.79h2.68v5.79Zm0-10.01h-2.68v-5.78h2.68v5.78Zm0-10h-2.68v-5.79h2.68v5.79Zm3.84,20.01h-2.67v-5.79h2.67v5.79Zm0-10.01h-2.67v-5.78h2.67v5.78Zm0-10h-2.67v-5.79h2.67v5.79Zm.01-10.18h-3.27v-6.87h3.27v6.87Zm4.45,0h-3.28v-6.87h3.28v6.87Zm4.51,0h-3.34v-6.87h3.34v6.87Zm9.54-7.82h-3.12v-3.73h3.12v3.73Zm0-4.78h-3.12v-1.3h3.12v1.3Zm0-6.22h-3.12v-3.73h3.12v3.73Zm0-4.78h-3.12v-1.3h3.12v1.3Zm0-6.22h-3.12v-3.73h3.12v3.73Zm0-4.78h-3.12v-1.3h3.12v1.3Zm4.33,26.78h-3.12v-3.73h3.12v3.73Zm0-4.78h-3.12v-1.3h3.12v1.3Zm0-6.22h-3.12v-3.73h3.12v3.73Zm0-4.78h-3.12v-1.3h3.12v1.3Zm0-6.22h-3.12v-3.73h3.12v3.73Zm0-4.78h-3.12v-1.3h3.12v1.3Zm47.54,26.78h-3.12v-3.73h3.12v3.73Zm0-4.78h-3.12v-1.3h3.12v1.3Zm0-6.22h-3.12v-3.73h3.12v3.73Zm0-4.78h-3.12v-1.3h3.12v1.3Zm0-6.22h-3.12v-3.73h3.12v3.73Zm0-4.78h-3.12v-1.3h3.12v1.3Zm14.81,5.92h3.13v6.82h-3.13v-6.82Zm-10.47,20.86h-3.13v-3.73h3.13v3.73Zm0-4.78h-3.13v-1.3h3.13v1.3Zm0-6.22h-3.13v-3.73h3.13v3.73Zm0-4.78h-3.13v-1.3h3.13v1.3Zm0-6.22h-3.13v-3.73h3.13v3.73Zm0-4.78h-3.13v-1.3h3.13v1.3Zm6.14,5.92h3.12v6.82h-3.12v-6.82Zm5.33,58.87h-2.67v-5.79h2.67v5.79Zm0-10.01h-2.67v-5.78h2.67v5.78Zm0-10h-2.67v-5.79h2.67v5.79Zm0-10.01h-2.67v-5.79h2.67v5.79Zm0-10h-2.67v-5.79h2.67v5.79Zm3.85,40.02h-2.68v-5.79h2.68v5.79Zm0-10.01h-2.68v-5.78h2.68v5.78Zm0-10h-2.68v-5.79h2.68v5.79Zm0-10.01h-2.68v-5.79h2.68v5.79Zm0-10h-2.68v-5.79h2.68v5.79Zm2.61-12.03h-3.12v-6.82h3.12v6.82Zm1.22-6.82h3.12v6.82h-3.12v-6.82Zm4.07,58.87h-2.67v-5.79h2.67v5.79Zm0-10.01h-2.67v-5.78h2.67v5.78Zm0-10h-2.67v-5.79h2.67v5.79Zm0-10.01h-2.67v-5.79h2.67v5.79Zm0-10h-2.67v-5.79h2.67v5.79Zm.25-18.85h3.14v6.82h-3.14v-6.82Zm3.6,58.87h-2.67v-5.79h2.67v5.79Zm0-10.01h-2.67v-5.78h2.67v5.78Zm0-10h-2.67v-5.79h2.67v5.79Zm0-10.01h-2.67v-5.79h2.67v5.79Zm0-10h-2.67v-5.79h2.67v5.79Zm10.42,56.84h-2.49v-1.75h2.49v1.75Zm5.32,0h-4.14v-1.75h4.14v1.75Zm5.31,0h-4.14v-1.75h4.14v1.75Zm5.31,0h-4.14v-1.75h4.14v1.75Zm5.3,0h-4.13v-1.75h4.13v1.75Zm5.31,0h-4.14v-1.75h4.14v1.75Zm5.31,0h-4.14v-1.75h4.14v1.75Zm5.31,0h-4.14v-1.75h4.14v1.75Zm3.67,0h-2.5v-1.75h2.5v1.75Zm13.59-11.65h-3.12v-3.72h3.12v3.72Zm0-4.77h-3.12v-1.31h3.12v1.31Zm0-6.23h-3.12v-3.72h3.12v3.72Zm0-4.77h-3.12v-1.31h3.12v1.31Zm0-6.23h-3.12v-3.72h3.12v3.72Zm0-4.77h-3.12v-1.31h3.12v1.31Zm4.33,26.77h-3.12v-3.72h3.12v3.72Zm0-4.77h-3.12v-1.31h3.12v1.31Zm0-6.23h-3.12v-3.72h3.12v3.72Zm0-4.77h-3.12v-1.31h3.12v1.31Zm0-6.23h-3.12v-3.72h3.12v3.72Zm0-4.77h-3.12v-1.31h3.12v1.31Zm4.71,26.77h-3.13v-3.72h3.13v3.72Zm0-4.77h-3.13v-1.31h3.13v1.31Zm0-6.23h-3.13v-3.72h3.13v3.72Zm0-4.77h-3.13v-1.31h3.13v1.31Zm0-6.23h-3.13v-3.72h3.13v3.72Zm0-4.77h-3.13v-1.31h3.13v1.31Zm20.38-29.8h-3.12v-3.73h3.12v3.73Zm0-4.77h-3.12v-1.31h3.12v1.31Zm0-6.23h-3.12v-3.73h3.12v3.73Zm0-4.77h-3.12v-1.31h3.12v1.31Zm0-6.23h-3.12v-3.73h3.12v3.73Zm0-4.77h-3.12v-1.31h3.12v1.31Zm4.33,26.77h-3.12v-3.73h3.12v3.73Zm0-4.77h-3.12v-1.31h3.12v1.31Zm0-6.23h-3.12v-3.73h3.12v3.73Zm0-4.77h-3.12v-1.31h3.12v1.31Zm0-6.23h-3.12v-3.73h3.12v3.73Zm0-4.77h-3.12v-1.31h3.12v1.31Zm6.51,26.77h-3.12v-3.73h3.12v3.73Zm0-4.77h-3.12v-1.31h3.12v1.31Zm0-6.23h-3.12v-3.73h3.12v3.73Zm0-4.77h-3.12v-1.31h3.12v1.31Zm0-6.23h-3.12v-3.73h3.12v3.73Zm0-4.77h-3.12v-1.31h3.12v1.31Zm4.33,26.77h-3.12v-3.73h3.12v3.73Zm0-4.77h-3.12v-1.31h3.12v1.31Zm0-6.23h-3.12v-3.73h3.12v3.73Zm0-4.77h-3.12v-1.31h3.12v1.31Zm0-6.23h-3.12v-3.73h3.12v3.73Zm0-4.77h-3.12v-1.31h3.12v1.31Zm50.76-1.87v-17.29h32.74v17.29h-32.74Zm29.93,9.99h-27.59v-8.13h27.59v8.13Zm9.34,60.04h-2.67v-5.78h2.67v5.78Zm0-10h-2.67v-5.79h2.67v5.79Zm0-10.01h-2.67v-5.79h2.67v5.79Zm0-10h-2.67v-5.79h2.67v5.79Zm0-10.01h-2.67v-5.79h2.67v5.79Zm3.85,40.02h-2.68v-5.78h2.68v5.78Zm0-10h-2.68v-5.79h2.68v5.79Zm0-10.01h-2.68v-5.79h2.68v5.79Zm0-10h-2.68v-5.79h2.68v5.79Zm0-10.01h-2.68v-5.79h2.68v5.79Zm7.9,40.02h-2.67v-5.78h2.67v5.78Zm0-10h-2.67v-5.79h2.67v5.79Zm0-10.01h-2.67v-5.79h2.67v5.79Zm0-10h-2.67v-5.79h2.67v5.79Zm0-10.01h-2.67v-5.79h2.67v5.79Zm3.85,40.02h-2.67v-5.78h2.67v5.78Zm0-10h-2.67v-5.79h2.67v5.79Zm0-10.01h-2.67v-5.79h2.67v5.79Zm0-10h-2.67v-5.79h2.67v5.79Zm0-10.01h-2.67v-5.79h2.67v5.79Zm10.85,48.37h-4.49v-1.74h4.49v1.74Zm5.31,0h-4.14v-1.74h4.14v1.74Zm5.31,0h-4.14v-1.74h4.14v1.74Zm6.37,0h-5.2v-1.74h5.2v1.74Zm7.03,26.34h-3.12v-3.72h3.12v3.72Zm0-4.77h-3.12v-1.31h3.12v1.31Zm0-6.23h-3.12v-3.72h3.12v3.72Zm0-4.77h-3.12v-1.31h3.12v1.31Zm0-6.23h-3.12v-3.72h3.12v3.72Zm0-4.77h-3.12v-1.31h3.12v1.31Zm4.33,26.77h-3.12v-3.72h3.12v3.72Zm0-4.77h-3.12v-1.31h3.12v1.31Zm0-6.23h-3.12v-3.72h3.12v3.72Zm0-4.77h-3.12v-1.31h3.12v1.31Zm0-6.23h-3.12v-3.72h3.12v3.72Zm0-4.77h-3.12v-1.31h3.12v1.31Zm11.65-17.45h-3.12v-3.73h3.12v3.73Zm0-4.78h-3.12v-1.3h3.12v1.3Zm0-6.22h-3.12v-3.73h3.12v3.73Zm0-4.78h-3.12v-1.3h3.12v1.3Zm0-6.22h-3.12v-3.73h3.12v3.73Zm0-4.78h-3.12v-1.3h3.12v1.3Zm.77-5.73h-3.12v-6.82h3.12v6.82Zm4.34,0h-3.13v-6.82h3.13v6.82Zm4.33,0h-3.12v-6.82h3.12v6.82Zm4.34,0h-3.14v-6.82h3.14v6.82Zm3.72,0h-2.52v-6.82h2.52v6.82Z" fill="#454797" stroke-width="0"/>
  <g>
    <rect x="17.44" y="180.91" width="3.13" height="1.3" fill="#c4ddbd" stroke-width="0"/>
    <rect x="17.44" y="183.26" width="3.13" height="3.73" fill="#c4ddbd" stroke-width="0"/>
    <rect x="27.7" y="182.21" width="5.91" height="23.66" fill="#fff8c6" stroke-width="0"/>
    <rect x="375.68" y="131.2" width="32.74" height="17.29" fill="#cfeaf7" stroke-width="0"/>
    <rect x="4.44" y="180.91" width="3.13" height="1.3" fill="#c4ddbd" stroke-width="0"/>
    <rect x="4.44" y="183.26" width="3.13" height="3.73" fill="#c4ddbd" stroke-width="0"/>
    <rect x="8.77" y="180.91" width="3.13" height="1.3" fill="#c4ddbd" stroke-width="0"/>
    <rect x="8.77" y="183.26" width="3.13" height="3.73" fill="#c4ddbd" stroke-width="0"/>
    <rect x="17.44" y="191.91" width="3.13" height="1.3" fill="#7277b7" stroke-width="0"/>
    <rect x="17.44" y="194.26" width="3.13" height="3.73" fill="#7277b7" stroke-width="0"/>
    <rect x="4.44" y="191.91" width="3.13" height="1.3" fill="#7277b7" stroke-width="0"/>
    <rect x="4.44" y="194.26" width="3.13" height="3.73" fill="#7277b7" stroke-width="0"/>
    <rect x="8.77" y="191.91" width="3.13" height="1.3" fill="#c4ddbd" stroke-width="0"/>
    <rect x="8.77" y="194.26" width="3.13" height="3.73" fill="#c4ddbd" stroke-width="0"/>
    <rect x="17.44" y="202.91" width="3.13" height="1.3" fill="#c4ddbd" stroke-width="0"/>
    <rect x="17.44" y="205.26" width="3.13" height="3.73" fill="#c4ddbd" stroke-width="0"/>
    <rect x="4.44" y="202.91" width="3.13" height="1.3" fill="#c4ddbd" stroke-width="0"/>
    <rect x="4.44" y="205.26" width="3.13" height="3.73" fill="#c4ddbd" stroke-width="0"/>
    <rect x="8.77" y="202.91" width="3.13" height="1.3" fill="#c4ddbd" stroke-width="0"/>
    <rect x="8.77" y="205.26" width="3.13" height="3.73" fill="#c4ddbd" stroke-width="0"/>
    <rect x="478.27" y="180.91" width="3.12" height="1.3" fill="#c4ddbd" stroke-width="0"/>
    <rect x="478.27" y="183.26" width="3.12" height="3.73" fill="#c4ddbd" stroke-width="0"/>
    <rect x="466.62" y="225.13" width="3.12" height="1.31" fill="#c4ddbd" stroke-width="0"/>
    <rect x="466.62" y="227.49" width="3.12" height="3.72" fill="#c4ddbd" stroke-width="0"/>
    <rect x="462.3" y="225.13" width="3.12" height="1.31" fill="#c4ddbd" stroke-width="0"/>
    <rect x="462.3" y="227.49" width="3.12" height="3.72" fill="#c4ddbd" stroke-width="0"/>
    <rect x="478.27" y="191.91" width="3.12" height="1.3" fill="#7277b7" stroke-width="0"/>
    <rect x="478.27" y="194.26" width="3.12" height="3.73" fill="#7277b7" stroke-width="0"/>
    <rect x="466.62" y="236.13" width="3.12" height="1.31" fill="#7277b7" stroke-width="0"/>
    <rect x="466.62" y="238.49" width="3.12" height="3.72" fill="#7277b7" stroke-width="0"/>
    <rect x="462.3" y="236.13" width="3.12" height="1.31" fill="#c4ddbd" stroke-width="0"/>
    <rect x="462.3" y="238.49" width="3.12" height="3.72" fill="#c4ddbd" stroke-width="0"/>
    <rect x="478.27" y="202.91" width="3.12" height="1.3" fill="#c4ddbd" stroke-width="0"/>
    <rect x="478.27" y="205.26" width="3.12" height="3.73" fill="#c4ddbd" stroke-width="0"/>
    <rect x="466.62" y="247.13" width="3.12" height="1.31" fill="#c4ddbd" stroke-width="0"/>
    <rect x="466.62" y="249.49" width="3.12" height="3.72" fill="#c4ddbd" stroke-width="0"/>
    <rect x="462.3" y="247.13" width="3.12" height="1.31" fill="#c4ddbd" stroke-width="0"/>
    <rect x="462.3" y="249.49" width="3.12" height="3.72" fill="#c4ddbd" stroke-width="0"/>
    <rect x="129.07" y="162.44" width="3.12" height="1.3" fill="#c4ddbd" stroke-width="0"/>
    <rect x="129.07" y="164.79" width="3.12" height="3.73" fill="#c4ddbd" stroke-width="0"/>
    <rect x="133.4" y="162.44" width="3.12" height="1.3" fill="#c4ddbd" stroke-width="0"/>
    <rect x="133.4" y="164.79" width="3.12" height="3.73" fill="#c4ddbd" stroke-width="0"/>
    <rect x="129.07" y="173.44" width="3.12" height="1.3" fill="#7277b7" stroke-width="0"/>
    <rect x="129.07" y="175.79" width="3.12" height="3.73" fill="#7277b7" stroke-width="0"/>
    <rect x="133.4" y="173.44" width="3.12" height="1.3" fill="#c4ddbd" stroke-width="0"/>
    <rect x="133.4" y="175.79" width="3.12" height="3.73" fill="#c4ddbd" stroke-width="0"/>
    <rect x="129.07" y="184.44" width="3.12" height="1.3" fill="#c4ddbd" stroke-width="0"/>
    <rect x="129.07" y="186.79" width="3.12" height="3.73" fill="#c4ddbd" stroke-width="0"/>
    <rect x="133.4" y="184.44" width="3.12" height="1.3" fill="#c4ddbd" stroke-width="0"/>
    <rect x="133.4" y="186.79" width="3.12" height="3.73" fill="#c4ddbd" stroke-width="0"/>
    <rect x="180.94" y="162.44" width="3.12" height="1.3" fill="#c4ddbd" stroke-width="0"/>
    <rect x="180.94" y="164.79" width="3.12" height="3.73" fill="#c4ddbd" stroke-width="0"/>
    <rect x="185.27" y="162.44" width="3.13" height="1.3" fill="#c4ddbd" stroke-width="0"/>
    <rect x="185.27" y="164.79" width="3.13" height="3.73" fill="#c4ddbd" stroke-width="0"/>
    <rect x="180.94" y="173.44" width="3.12" height="1.3" fill="#7277b7" stroke-width="0"/>
    <rect x="180.94" y="175.79" width="3.12" height="3.73" fill="#7277b7" stroke-width="0"/>
    <rect x="185.27" y="173.44" width="3.13" height="1.3" fill="#c4ddbd" stroke-width="0"/>
    <rect x="185.27" y="175.79" width="3.13" height="3.73" fill="#c4ddbd" stroke-width="0"/>
    <rect x="180.94" y="184.44" width="3.12" height="1.3" fill="#c4ddbd" stroke-width="0"/>
    <rect x="180.94" y="186.79" width="3.12" height="3.73" fill="#c4ddbd" stroke-width="0"/>
    <rect x="185.27" y="184.44" width="3.13" height="1.3" fill="#c4ddbd" stroke-width="0"/>
    <rect x="185.27" y="186.79" width="3.13" height="3.73" fill="#c4ddbd" stroke-width="0"/>
    <rect x="306.62" y="149.05" width="3.12" height="1.31" fill="#c4ddbd" stroke-width="0"/>
    <rect x="306.62" y="151.4" width="3.12" height="3.73" fill="#c4ddbd" stroke-width="0"/>
    <rect x="310.95" y="149.05" width="3.12" height="1.31" fill="#c4ddbd" stroke-width="0"/>
    <rect x="310.95" y="151.4" width="3.12" height="3.73" fill="#c4ddbd" stroke-width="0"/>
    <rect x="306.62" y="160.05" width="3.12" height="1.31" fill="#7277b7" stroke-width="0"/>
    <rect x="306.62" y="162.4" width="3.12" height="3.73" fill="#7277b7" stroke-width="0"/>
    <rect x="310.95" y="160.05" width="3.12" height="1.31" fill="#c4ddbd" stroke-width="0"/>
    <rect x="310.95" y="162.4" width="3.12" height="3.73" fill="#c4ddbd" stroke-width="0"/>
    <rect x="306.62" y="171.05" width="3.12" height="1.31" fill="#c4ddbd" stroke-width="0"/>
    <rect x="306.62" y="173.4" width="3.12" height="3.73" fill="#c4ddbd" stroke-width="0"/>
    <rect x="310.95" y="171.05" width="3.12" height="1.31" fill="#c4ddbd" stroke-width="0"/>
    <rect x="310.95" y="173.4" width="3.12" height="3.73" fill="#c4ddbd" stroke-width="0"/>
    <rect x="317.46" y="149.05" width="3.12" height="1.31" fill="#c4ddbd" stroke-width="0"/>
    <rect x="317.46" y="151.4" width="3.12" height="3.73" fill="#c4ddbd" stroke-width="0"/>
    <rect x="321.8" y="149.05" width="3.12" height="1.31" fill="#c4ddbd" stroke-width="0"/>
    <rect x="321.8" y="151.4" width="3.12" height="3.73" fill="#c4ddbd" stroke-width="0"/>
    <rect x="317.46" y="160.05" width="3.12" height="1.31" fill="#7277b7" stroke-width="0"/>
    <rect x="317.46" y="162.4" width="3.12" height="3.73" fill="#7277b7" stroke-width="0"/>
    <rect x="321.8" y="160.05" width="3.12" height="1.31" fill="#c4ddbd" stroke-width="0"/>
    <rect x="321.8" y="162.4" width="3.12" height="3.73" fill="#c4ddbd" stroke-width="0"/>
    <rect x="317.46" y="171.05" width="3.12" height="1.31" fill="#c4ddbd" stroke-width="0"/>
    <rect x="317.46" y="173.4" width="3.12" height="3.73" fill="#c4ddbd" stroke-width="0"/>
    <rect x="321.8" y="171.05" width="3.12" height="1.31" fill="#c4ddbd" stroke-width="0"/>
    <rect x="321.8" y="173.4" width="3.12" height="3.73" fill="#c4ddbd" stroke-width="0"/>
    <rect x="277.2" y="205.62" width="3.12" height="1.31" fill="#c4ddbd" stroke-width="0"/>
    <rect x="277.2" y="207.98" width="3.12" height="3.72" fill="#c4ddbd" stroke-width="0"/>
    <rect x="281.54" y="205.62" width="3.12" height="1.31" fill="#c4ddbd" stroke-width="0"/>
    <rect x="281.54" y="207.98" width="3.12" height="3.72" fill="#c4ddbd" stroke-width="0"/>
    <rect x="277.2" y="216.62" width="3.12" height="1.31" fill="#7277b7" stroke-width="0"/>
    <rect x="277.2" y="218.98" width="3.12" height="3.72" fill="#7277b7" stroke-width="0"/>
    <rect x="281.54" y="216.62" width="3.12" height="1.31" fill="#c4ddbd" stroke-width="0"/>
    <rect x="281.54" y="218.98" width="3.12" height="3.72" fill="#c4ddbd" stroke-width="0"/>
    <rect x="277.2" y="227.62" width="3.12" height="1.31" fill="#c4ddbd" stroke-width="0"/>
    <rect x="277.2" y="229.98" width="3.12" height="3.72" fill="#c4ddbd" stroke-width="0"/>
    <rect x="281.54" y="227.62" width="3.12" height="1.31" fill="#c4ddbd" stroke-width="0"/>
    <rect x="281.54" y="229.98" width="3.12" height="3.72" fill="#c4ddbd" stroke-width="0"/>
    <rect x="286.24" y="205.62" width="3.13" height="1.31" fill="#c4ddbd" stroke-width="0"/>
    <rect x="286.24" y="207.98" width="3.13" height="3.72" fill="#c4ddbd" stroke-width="0"/>
    <rect x="286.24" y="216.62" width="3.13" height="1.31" fill="#7277b7" stroke-width="0"/>
    <rect x="286.24" y="218.98" width="3.13" height="3.72" fill="#7277b7" stroke-width="0"/>
    <rect x="286.24" y="227.62" width="3.13" height="1.31" fill="#c4ddbd" stroke-width="0"/>
    <rect x="286.24" y="229.98" width="3.13" height="3.72" fill="#c4ddbd" stroke-width="0"/>
    <rect x="99.26" y="202.73" width="2.67" height="5.79" fill="#c4ddbd" stroke-width="0"/>
    <rect x="95.42" y="202.73" width="2.67" height="5.79" fill="#c4ddbd" stroke-width="0"/>
    <rect x="111.01" y="202.73" width="2.67" height="5.79" fill="#c4ddbd" stroke-width="0"/>
    <rect x="107.17" y="202.73" width="2.68" height="5.79" fill="#c4ddbd" stroke-width="0"/>
    <rect x="99.26" y="212.74" width="2.67" height="5.78" fill="#7277b7" stroke-width="0"/>
    <rect x="95.42" y="212.74" width="2.67" height="5.78" fill="#7277b7" stroke-width="0"/>
    <rect x="111.01" y="212.74" width="2.67" height="5.78" fill="#c4ddbd" stroke-width="0"/>
    <rect x="107.17" y="212.74" width="2.68" height="5.78" fill="#c4ddbd" stroke-width="0"/>
    <rect x="99.26" y="222.74" width="2.67" height="5.79" fill="#7277b7" stroke-width="0"/>
    <rect x="95.42" y="222.74" width="2.67" height="5.79" fill="#7277b7" stroke-width="0"/>
    <rect x="111.01" y="222.74" width="2.67" height="5.79" fill="#7277b7" stroke-width="0"/>
    <rect x="107.17" y="222.74" width="2.68" height="5.79" fill="#7277b7" stroke-width="0"/>
    <rect x="201.05" y="202.73" width="2.68" height="5.79" fill="#c4ddbd" stroke-width="0"/>
    <rect x="197.2" y="202.73" width="2.67" height="5.79" fill="#c4ddbd" stroke-width="0"/>
    <rect x="212.8" y="202.73" width="2.67" height="5.79" fill="#7277b7" stroke-width="0"/>
    <rect x="208.95" y="202.73" width="2.67" height="5.79" fill="#7277b7" stroke-width="0"/>
    <rect x="201.05" y="212.74" width="2.68" height="5.78" fill="#7277b7" stroke-width="0"/>
    <rect x="197.2" y="212.74" width="2.67" height="5.78" fill="#7277b7" stroke-width="0"/>
    <rect x="212.8" y="212.74" width="2.67" height="5.78" fill="#c4ddbd" stroke-width="0"/>
    <rect x="208.95" y="212.74" width="2.67" height="5.78" fill="#c4ddbd" stroke-width="0"/>
    <rect x="201.05" y="182.72" width="2.68" height="5.79" fill="#c4ddbd" stroke-width="0"/>
    <rect x="197.2" y="182.72" width="2.67" height="5.79" fill="#c4ddbd" stroke-width="0"/>
    <rect x="212.8" y="182.72" width="2.67" height="5.79" fill="#c4ddbd" stroke-width="0"/>
    <rect x="208.95" y="182.72" width="2.67" height="5.79" fill="#c4ddbd" stroke-width="0"/>
    <rect x="201.05" y="192.72" width="2.68" height="5.79" fill="#7277b7" stroke-width="0"/>
    <rect x="197.2" y="192.72" width="2.67" height="5.79" fill="#7277b7" stroke-width="0"/>
    <rect x="212.8" y="192.72" width="2.67" height="5.79" fill="#c4ddbd" stroke-width="0"/>
    <rect x="208.95" y="192.72" width="2.67" height="5.79" fill="#c4ddbd" stroke-width="0"/>
    <rect x="201.05" y="222.74" width="2.68" height="5.79" fill="#7277b7" stroke-width="0"/>
    <rect x="197.2" y="222.74" width="2.67" height="5.79" fill="#7277b7" stroke-width="0"/>
    <rect x="212.8" y="222.74" width="2.67" height="5.79" fill="#7277b7" stroke-width="0"/>
    <rect x="208.95" y="222.74" width="2.67" height="5.79" fill="#7277b7" stroke-width="0"/>
    <rect x="416.11" y="192.72" width="2.68" height="5.79" fill="#c4ddbd" stroke-width="0"/>
    <rect x="412.27" y="192.72" width="2.67" height="5.79" fill="#c4ddbd" stroke-width="0"/>
    <rect x="427.87" y="192.72" width="2.67" height="5.79" fill="#7277b7" stroke-width="0"/>
    <rect x="424.02" y="192.72" width="2.67" height="5.79" fill="#7277b7" stroke-width="0"/>
    <rect x="416.11" y="202.73" width="2.68" height="5.79" fill="#7277b7" stroke-width="0"/>
    <rect x="412.27" y="202.73" width="2.67" height="5.79" fill="#7277b7" stroke-width="0"/>
    <rect x="427.87" y="202.73" width="2.67" height="5.79" fill="#c4ddbd" stroke-width="0"/>
    <rect x="424.02" y="202.73" width="2.67" height="5.79" fill="#c4ddbd" stroke-width="0"/>
    <rect x="416.11" y="172.71" width="2.68" height="5.79" fill="#c4ddbd" stroke-width="0"/>
    <rect x="412.27" y="172.71" width="2.67" height="5.79" fill="#c4ddbd" stroke-width="0"/>
    <rect x="427.87" y="172.71" width="2.67" height="5.79" fill="#c4ddbd" stroke-width="0"/>
    <rect x="424.02" y="172.71" width="2.67" height="5.79" fill="#c4ddbd" stroke-width="0"/>
    <rect x="416.11" y="182.72" width="2.68" height="5.79" fill="#7277b7" stroke-width="0"/>
    <rect x="412.27" y="182.72" width="2.67" height="5.79" fill="#7277b7" stroke-width="0"/>
    <rect x="427.87" y="182.72" width="2.67" height="5.79" fill="#c4ddbd" stroke-width="0"/>
    <rect x="424.02" y="182.72" width="2.67" height="5.79" fill="#c4ddbd" stroke-width="0"/>
    <rect x="416.11" y="212.74" width="2.68" height="5.78" fill="#7277b7" stroke-width="0"/>
    <rect x="412.27" y="212.74" width="2.67" height="5.78" fill="#7277b7" stroke-width="0"/>
    <rect x="427.87" y="212.74" width="2.67" height="5.78" fill="#7277b7" stroke-width="0"/>
    <rect x="424.02" y="212.74" width="2.67" height="5.78" fill="#7277b7" stroke-width="0"/>
  </g>
</svg>