<svg width="31" height="33" viewBox="0 0 31 33" fill="none" xmlns="http://www.w3.org/2000/svg">
<g id="pixelarticons:heart">
<path id="Vector" d="M11.7498 3.83331H6.08317V6.66665H3.24984V9.49998H0.416504V18H3.24984V20.8333H6.08317V23.6666H8.9165V26.5H11.7498V29.3333H14.5832V32.1666H17.4165V29.3333H20.2498V26.5H23.0832V23.6666H25.9165V20.8333H28.7498V18H31.5832V9.49998H28.7498V6.66665H25.9165V3.83331H20.2498V6.66665H17.4165V9.49998H14.5832V6.66665H11.7498V3.83331ZM11.7498 6.66665V9.49998H14.5832V12.3333H17.4165V9.49998H20.2498V6.66665H25.9165V9.49998H28.7498V18H25.9165V20.8333H23.0832V23.6666H20.2498V26.5H17.4165V29.3333H14.5832V26.5H11.7498V23.6666H8.9165V20.8333H6.08317V18H3.24984V9.49998H6.08317V6.66665H11.7498Z" fill="url(#paint0_linear_429_874)"/>
</g>
<defs>
<linearGradient id="paint0_linear_429_874" x1="15.9998" y1="3.83331" x2="15.9998" y2="53.9009" gradientUnits="userSpaceOnUse">
<stop stop-color="#454896"/>
<stop offset="0.295597" stop-color="#AE34B0"/>
<stop offset="0.7" stop-color="#CA6BA9"/>
</linearGradient>
</defs>
</svg>
